<mxfile host="Electron" modified="2024-02-07T14:35:06.953Z" agent="Mozilla/5.0 (Windows NT 10.0; Win64; x64) AppleWebKit/537.36 (KHTML, like Gecko) draw.io/22.1.18 Chrome/120.0.6099.199 Electron/28.1.2 Safari/537.36" etag="ybkMxxw6M0-SXXcInNiv" version="22.1.18" type="device">
  <diagram id="_J6QyDtCyrCejgibEiPi" name="Page-1">
    <mxGraphModel dx="1840" dy="1198" grid="0" gridSize="11" guides="1" tooltips="1" connect="1" arrows="1" fold="1" page="1" pageScale="1" pageWidth="1100" pageHeight="850" background="#ffffff" math="0" shadow="0">
      <root>
        <mxCell id="0" />
        <mxCell id="1" parent="0" />
        <mxCell id="0CBs-_K-dKTUyLUtf2J0-20" value="&lt;font style=&quot;font-size: 15px;&quot;&gt;User&lt;/font&gt;" style="whiteSpace=wrap;html=1;align=center;strokeColor=#6c8ebf;fillColor=#dae8fc;fontSize=15;fontStyle=1" parent="1" vertex="1">
          <mxGeometry x="198" y="220" width="100" height="44" as="geometry" />
        </mxCell>
        <mxCell id="0CBs-_K-dKTUyLUtf2J0-61" value="1.7.1" style="swimlane;childLayout=stackLayout;horizontal=1;startSize=30;horizontalStack=0;rounded=1;fontSize=15;fontStyle=1;strokeWidth=2;resizeParent=0;resizeLast=1;shadow=0;dashed=0;align=center;" parent="1" vertex="1">
          <mxGeometry x="501" y="187" width="143" height="90" as="geometry" />
        </mxCell>
        <mxCell id="kGm6ucPW3_3usi9ivNwX-3" value="browse plans" style="text;html=1;align=center;verticalAlign=middle;resizable=0;points=[];autosize=1;strokeColor=none;fillColor=none;strokeWidth=6;perimeterSpacing=3;fontSize=15;fontStyle=1" parent="0CBs-_K-dKTUyLUtf2J0-61" vertex="1">
          <mxGeometry y="30" width="143" height="60" as="geometry" />
        </mxCell>
        <mxCell id="kGm6ucPW3_3usi9ivNwX-39" style="edgeStyle=orthogonalEdgeStyle;rounded=0;orthogonalLoop=1;jettySize=auto;html=1;entryX=1;entryY=0.5;entryDx=0;entryDy=0;exitX=0.458;exitY=1.092;exitDx=0;exitDy=0;exitPerimeter=0;fillColor=#dae8fc;strokeColor=#6c8ebf;strokeWidth=3;fontSize=15;fontStyle=1" parent="1" source="djoCQU5wKfSwEfKa916S-10" target="kGm6ucPW3_3usi9ivNwX-27" edge="1">
          <mxGeometry relative="1" as="geometry">
            <Array as="points">
              <mxPoint x="1111" y="242" />
              <mxPoint x="1001" y="242" />
              <mxPoint x="1001" y="727" />
            </Array>
          </mxGeometry>
        </mxCell>
        <mxCell id="kGm6ucPW3_3usi9ivNwX-40" value="user plan type" style="edgeLabel;html=1;align=center;verticalAlign=middle;resizable=0;points=[];fontSize=15;fontStyle=1" parent="kGm6ucPW3_3usi9ivNwX-39" vertex="1" connectable="0">
          <mxGeometry x="0.6777" y="1" relative="1" as="geometry">
            <mxPoint y="1" as="offset" />
          </mxGeometry>
        </mxCell>
        <mxCell id="djoCQU5wKfSwEfKa916S-10" value="&lt;font style=&quot;font-size: 15px;&quot;&gt;D1&amp;nbsp; &amp;nbsp; user database&lt;/font&gt;" style="html=1;dashed=0;whitespace=wrap;shape=mxgraph.dfd.dataStoreID;align=left;spacingLeft=3;points=[[0,0],[0.5,0],[1,0],[0,0.5],[1,0.5],[0,1],[0.5,1],[1,1]];fontSize=15;fontStyle=1" parent="1" vertex="1">
          <mxGeometry x="1045" y="190" width="143" height="30" as="geometry" />
        </mxCell>
        <mxCell id="ZKWgKy2jPu-fumhLEX5u-30" style="edgeStyle=orthogonalEdgeStyle;rounded=0;orthogonalLoop=1;jettySize=auto;html=1;fontSize=15;fontStyle=1;exitX=1;exitY=0.5;exitDx=0;exitDy=0;strokeWidth=3;" parent="1" source="0CBs-_K-dKTUyLUtf2J0-20" edge="1">
          <mxGeometry relative="1" as="geometry">
            <Array as="points" />
            <mxPoint x="187" y="117.63599999999997" as="sourcePoint" />
            <mxPoint x="498" y="247" as="targetPoint" />
          </mxGeometry>
        </mxCell>
        <mxCell id="ZKWgKy2jPu-fumhLEX5u-31" value="subscribe" style="edgeLabel;html=1;align=center;verticalAlign=middle;resizable=0;points=[];fontSize=15;fontStyle=1" parent="ZKWgKy2jPu-fumhLEX5u-30" vertex="1" connectable="0">
          <mxGeometry x="0.3958" y="-2" relative="1" as="geometry">
            <mxPoint as="offset" />
          </mxGeometry>
        </mxCell>
        <mxCell id="ZKWgKy2jPu-fumhLEX5u-68" value="1.3.1" style="swimlane;childLayout=stackLayout;horizontal=1;startSize=30;horizontalStack=0;rounded=1;fontSize=15;fontStyle=1;strokeWidth=2;resizeParent=0;resizeLast=1;shadow=0;dashed=0;align=center;" parent="1" vertex="1">
          <mxGeometry x="458" y="495" width="184" height="90" as="geometry" />
        </mxCell>
        <mxCell id="ZKWgKy2jPu-fumhLEX5u-69" value="&lt;div style=&quot;font-size: 15px;&quot;&gt;select media type&lt;/div&gt;" style="text;html=1;align=center;verticalAlign=middle;resizable=0;points=[];autosize=1;strokeColor=none;fillColor=none;strokeWidth=6;perimeterSpacing=3;fontSize=15;fontStyle=1" parent="ZKWgKy2jPu-fumhLEX5u-68" vertex="1">
          <mxGeometry y="30" width="184" height="60" as="geometry" />
        </mxCell>
        <mxCell id="VPhdA8_-v0yTpyHQM1CX-5" value="&lt;font style=&quot;font-size: 15px;&quot;&gt;D4&amp;nbsp; &amp;nbsp; subscriptions&lt;/font&gt;" style="html=1;dashed=0;whitespace=wrap;shape=mxgraph.dfd.dataStoreID;align=left;spacingLeft=3;points=[[0,0],[0.5,0],[1,0],[0,0.5],[1,0.5],[0,1],[0.5,1],[1,1]];fontSize=15;fontStyle=1" parent="1" vertex="1">
          <mxGeometry x="1045" y="286" width="143" height="30" as="geometry" />
        </mxCell>
        <mxCell id="VPhdA8_-v0yTpyHQM1CX-8" style="edgeStyle=orthogonalEdgeStyle;rounded=0;orthogonalLoop=1;jettySize=auto;html=1;entryX=0.625;entryY=0.013;entryDx=0;entryDy=0;entryPerimeter=0;fontSize=15;fontStyle=1;exitX=0;exitY=0.5;exitDx=0;exitDy=0;fillColor=#d80073;strokeColor=#A50040;strokeWidth=3;" parent="1" source="VPhdA8_-v0yTpyHQM1CX-5" target="0CBs-_K-dKTUyLUtf2J0-61" edge="1">
          <mxGeometry relative="1" as="geometry">
            <Array as="points">
              <mxPoint x="1023" y="301" />
              <mxPoint x="1023" y="88" />
              <mxPoint x="590" y="88" />
            </Array>
          </mxGeometry>
        </mxCell>
        <mxCell id="VPhdA8_-v0yTpyHQM1CX-9" value="subscriptions" style="edgeLabel;html=1;align=center;verticalAlign=middle;resizable=0;points=[];fontSize=15;fontStyle=1" parent="VPhdA8_-v0yTpyHQM1CX-8" vertex="1" connectable="0">
          <mxGeometry x="0.5" y="-3" relative="1" as="geometry">
            <mxPoint as="offset" />
          </mxGeometry>
        </mxCell>
        <mxCell id="kGm6ucPW3_3usi9ivNwX-8" style="edgeStyle=orthogonalEdgeStyle;rounded=0;orthogonalLoop=1;jettySize=auto;html=1;entryX=0.5;entryY=0;entryDx=0;entryDy=0;fontSize=15;fontStyle=1" parent="1" source="kGm6ucPW3_3usi9ivNwX-1" target="kGm6ucPW3_3usi9ivNwX-6" edge="1">
          <mxGeometry relative="1" as="geometry" />
        </mxCell>
        <mxCell id="kGm6ucPW3_3usi9ivNwX-9" value="price&lt;br style=&quot;font-size: 15px;&quot;&gt;" style="edgeLabel;html=1;align=center;verticalAlign=middle;resizable=0;points=[];fontSize=15;fontStyle=1" parent="kGm6ucPW3_3usi9ivNwX-8" vertex="1" connectable="0">
          <mxGeometry x="-0.2161" y="4" relative="1" as="geometry">
            <mxPoint as="offset" />
          </mxGeometry>
        </mxCell>
        <mxCell id="kGm6ucPW3_3usi9ivNwX-1" value="1.7.2" style="swimlane;childLayout=stackLayout;horizontal=1;startSize=30;horizontalStack=0;rounded=1;fontSize=15;fontStyle=1;strokeWidth=2;resizeParent=0;resizeLast=1;shadow=0;dashed=0;align=center;" parent="1" vertex="1">
          <mxGeometry x="770" y="187" width="143" height="90" as="geometry" />
        </mxCell>
        <mxCell id="kGm6ucPW3_3usi9ivNwX-2" value="select plan&amp;nbsp;" style="text;html=1;align=center;verticalAlign=middle;resizable=0;points=[];autosize=1;strokeColor=none;fillColor=none;strokeWidth=6;perimeterSpacing=3;fontSize=15;fontStyle=1" parent="kGm6ucPW3_3usi9ivNwX-1" vertex="1">
          <mxGeometry y="30" width="143" height="60" as="geometry" />
        </mxCell>
        <mxCell id="kGm6ucPW3_3usi9ivNwX-4" style="edgeStyle=orthogonalEdgeStyle;rounded=0;orthogonalLoop=1;jettySize=auto;html=1;entryX=0.038;entryY=0.516;entryDx=0;entryDy=0;entryPerimeter=0;fontSize=15;fontStyle=1;strokeWidth=3;" parent="1" target="kGm6ucPW3_3usi9ivNwX-2" edge="1">
          <mxGeometry relative="1" as="geometry">
            <mxPoint x="647" y="247" as="sourcePoint" />
          </mxGeometry>
        </mxCell>
        <mxCell id="kGm6ucPW3_3usi9ivNwX-6" value="1.7.3" style="swimlane;childLayout=stackLayout;horizontal=1;startSize=30;horizontalStack=0;rounded=1;fontSize=15;fontStyle=1;strokeWidth=2;resizeParent=0;resizeLast=1;shadow=0;dashed=0;align=center;" parent="1" vertex="1">
          <mxGeometry x="756" y="363" width="171" height="90" as="geometry" />
        </mxCell>
        <mxCell id="kGm6ucPW3_3usi9ivNwX-7" value="select payment&lt;br style=&quot;font-size: 15px;&quot;&gt;&amp;nbsp;method" style="text;html=1;align=center;verticalAlign=middle;resizable=0;points=[];autosize=1;strokeColor=none;fillColor=none;strokeWidth=6;perimeterSpacing=3;fontSize=15;fontStyle=1" parent="kGm6ucPW3_3usi9ivNwX-6" vertex="1">
          <mxGeometry y="30" width="171" height="60" as="geometry" />
        </mxCell>
        <mxCell id="kGm6ucPW3_3usi9ivNwX-11" value="1.7.4" style="swimlane;childLayout=stackLayout;horizontal=1;startSize=30;horizontalStack=0;rounded=1;fontSize=15;fontStyle=1;strokeWidth=2;resizeParent=0;resizeLast=1;shadow=0;dashed=0;align=center;" parent="1" vertex="1">
          <mxGeometry x="501" y="352" width="171" height="90" as="geometry" />
        </mxCell>
        <mxCell id="kGm6ucPW3_3usi9ivNwX-12" value="pay" style="text;html=1;align=center;verticalAlign=middle;resizable=0;points=[];autosize=1;strokeColor=none;fillColor=none;strokeWidth=6;perimeterSpacing=3;fontSize=15;fontStyle=1" parent="kGm6ucPW3_3usi9ivNwX-11" vertex="1">
          <mxGeometry y="30" width="171" height="60" as="geometry" />
        </mxCell>
        <mxCell id="kGm6ucPW3_3usi9ivNwX-13" style="edgeStyle=orthogonalEdgeStyle;rounded=0;orthogonalLoop=1;jettySize=auto;html=1;entryX=0.977;entryY=0.667;entryDx=0;entryDy=0;entryPerimeter=0;fontSize=15;fontStyle=1;strokeWidth=3;" parent="1" source="kGm6ucPW3_3usi9ivNwX-7" target="kGm6ucPW3_3usi9ivNwX-12" edge="1">
          <mxGeometry relative="1" as="geometry" />
        </mxCell>
        <mxCell id="kGm6ucPW3_3usi9ivNwX-14" value="method" style="edgeLabel;html=1;align=center;verticalAlign=middle;resizable=0;points=[];fontSize=15;fontStyle=1" parent="kGm6ucPW3_3usi9ivNwX-13" vertex="1" connectable="0">
          <mxGeometry x="-0.2434" y="2" relative="1" as="geometry">
            <mxPoint as="offset" />
          </mxGeometry>
        </mxCell>
        <mxCell id="kGm6ucPW3_3usi9ivNwX-15" style="edgeStyle=orthogonalEdgeStyle;rounded=0;orthogonalLoop=1;jettySize=auto;html=1;fontSize=15;fontStyle=1;entryX=0.75;entryY=1;entryDx=0;entryDy=0;strokeWidth=3;" parent="1" source="kGm6ucPW3_3usi9ivNwX-12" target="0CBs-_K-dKTUyLUtf2J0-20" edge="1">
          <mxGeometry relative="1" as="geometry">
            <mxPoint x="297" y="363" as="targetPoint" />
            <Array as="points">
              <mxPoint x="273" y="412" />
            </Array>
          </mxGeometry>
        </mxCell>
        <mxCell id="kGm6ucPW3_3usi9ivNwX-16" value="subscription status" style="edgeLabel;html=1;align=center;verticalAlign=middle;resizable=0;points=[];fontSize=15;fontStyle=1" parent="kGm6ucPW3_3usi9ivNwX-15" vertex="1" connectable="0">
          <mxGeometry x="-0.4929" y="-1" relative="1" as="geometry">
            <mxPoint as="offset" />
          </mxGeometry>
        </mxCell>
        <mxCell id="kGm6ucPW3_3usi9ivNwX-17" style="edgeStyle=orthogonalEdgeStyle;rounded=0;orthogonalLoop=1;jettySize=auto;html=1;entryX=0;entryY=0.5;entryDx=0;entryDy=0;strokeWidth=3;fillColor=#dae8fc;strokeColor=#6c8ebf;fontSize=15;fontStyle=1" parent="1" source="kGm6ucPW3_3usi9ivNwX-12" target="djoCQU5wKfSwEfKa916S-10" edge="1">
          <mxGeometry relative="1" as="geometry">
            <Array as="points">
              <mxPoint x="587" y="484" />
              <mxPoint x="990" y="484" />
              <mxPoint x="990" y="205" />
            </Array>
          </mxGeometry>
        </mxCell>
        <mxCell id="kGm6ucPW3_3usi9ivNwX-18" value="user plan" style="edgeLabel;html=1;align=center;verticalAlign=middle;resizable=0;points=[];fontSize=15;fontStyle=1" parent="kGm6ucPW3_3usi9ivNwX-17" vertex="1" connectable="0">
          <mxGeometry x="-0.2835" y="2" relative="1" as="geometry">
            <mxPoint x="-176" as="offset" />
          </mxGeometry>
        </mxCell>
        <mxCell id="kGm6ucPW3_3usi9ivNwX-19" value="&lt;font style=&quot;font-size: 15px;&quot;&gt;D2&amp;nbsp; &amp;nbsp; media_data database&lt;/font&gt;" style="html=1;dashed=0;whitespace=wrap;shape=mxgraph.dfd.dataStoreID;align=left;spacingLeft=3;points=[[0,0],[0.5,0],[1,0],[0,0.5],[1,0.5],[0,1],[0.5,1],[1,1]];fontSize=15;fontStyle=1" parent="1" vertex="1">
          <mxGeometry x="1045" y="363" width="143" height="30" as="geometry" />
        </mxCell>
        <mxCell id="kGm6ucPW3_3usi9ivNwX-22" value="1.3.2" style="swimlane;childLayout=stackLayout;horizontal=1;startSize=30;horizontalStack=0;rounded=1;fontSize=15;fontStyle=1;strokeWidth=2;resizeParent=0;resizeLast=1;shadow=0;dashed=0;align=center;" parent="1" vertex="1">
          <mxGeometry x="756" y="506" width="184" height="90" as="geometry" />
        </mxCell>
        <mxCell id="kGm6ucPW3_3usi9ivNwX-23" value="&lt;div style=&quot;font-size: 15px;&quot;&gt;enter media&amp;nbsp;&lt;/div&gt;" style="text;html=1;align=center;verticalAlign=middle;resizable=0;points=[];autosize=1;strokeColor=none;fillColor=none;strokeWidth=6;perimeterSpacing=3;fontSize=15;fontStyle=1" parent="kGm6ucPW3_3usi9ivNwX-22" vertex="1">
          <mxGeometry y="30" width="184" height="60" as="geometry" />
        </mxCell>
        <mxCell id="kGm6ucPW3_3usi9ivNwX-24" style="edgeStyle=orthogonalEdgeStyle;rounded=0;orthogonalLoop=1;jettySize=auto;html=1;entryX=0.032;entryY=0.333;entryDx=0;entryDy=0;entryPerimeter=0;strokeWidth=3;fontSize=15;fontStyle=1" parent="1" source="ZKWgKy2jPu-fumhLEX5u-69" target="kGm6ucPW3_3usi9ivNwX-23" edge="1">
          <mxGeometry relative="1" as="geometry" />
        </mxCell>
        <mxCell id="kGm6ucPW3_3usi9ivNwX-25" value="media type" style="edgeLabel;html=1;align=center;verticalAlign=middle;resizable=0;points=[];fontSize=15;fontStyle=1" parent="kGm6ucPW3_3usi9ivNwX-24" vertex="1" connectable="0">
          <mxGeometry x="0.0795" y="2" relative="1" as="geometry">
            <mxPoint as="offset" />
          </mxGeometry>
        </mxCell>
        <mxCell id="kGm6ucPW3_3usi9ivNwX-27" value="1.3.3" style="swimlane;childLayout=stackLayout;horizontal=1;startSize=30;horizontalStack=0;rounded=1;fontSize=15;fontStyle=1;strokeWidth=2;resizeParent=0;resizeLast=1;shadow=0;dashed=0;align=center;" parent="1" vertex="1">
          <mxGeometry x="759" y="682" width="184" height="90" as="geometry" />
        </mxCell>
        <mxCell id="kGm6ucPW3_3usi9ivNwX-28" value="&lt;div style=&quot;border-color: var(--border-color); font-size: 15px;&quot;&gt;Detect Ai generated&lt;/div&gt;&lt;div style=&quot;border-color: var(--border-color); font-size: 15px;&quot;&gt;media.&lt;/div&gt;" style="text;html=1;align=center;verticalAlign=middle;resizable=0;points=[];autosize=1;strokeColor=none;fillColor=none;strokeWidth=6;perimeterSpacing=3;fontSize=15;fontStyle=1" parent="kGm6ucPW3_3usi9ivNwX-27" vertex="1">
          <mxGeometry y="30" width="184" height="60" as="geometry" />
        </mxCell>
        <mxCell id="kGm6ucPW3_3usi9ivNwX-30" style="edgeStyle=orthogonalEdgeStyle;rounded=0;orthogonalLoop=1;jettySize=auto;html=1;entryX=0.5;entryY=0;entryDx=0;entryDy=0;strokeWidth=3;fontSize=15;fontStyle=1" parent="1" source="kGm6ucPW3_3usi9ivNwX-23" target="kGm6ucPW3_3usi9ivNwX-27" edge="1">
          <mxGeometry relative="1" as="geometry" />
        </mxCell>
        <mxCell id="kGm6ucPW3_3usi9ivNwX-31" value="media" style="edgeLabel;html=1;align=center;verticalAlign=middle;resizable=0;points=[];fontSize=15;fontStyle=1" parent="kGm6ucPW3_3usi9ivNwX-30" vertex="1" connectable="0">
          <mxGeometry x="-0.2031" y="2" relative="1" as="geometry">
            <mxPoint as="offset" />
          </mxGeometry>
        </mxCell>
        <mxCell id="kGm6ucPW3_3usi9ivNwX-32" style="edgeStyle=orthogonalEdgeStyle;rounded=0;orthogonalLoop=1;jettySize=auto;html=1;entryX=0.012;entryY=0.363;entryDx=0;entryDy=0;entryPerimeter=0;exitX=0.641;exitY=0.997;exitDx=0;exitDy=0;exitPerimeter=0;strokeWidth=3;fontSize=15;fontStyle=1" parent="1" edge="1">
          <mxGeometry relative="1" as="geometry">
            <mxPoint x="261.1" y="263.86800000000005" as="sourcePoint" />
            <mxPoint x="456.2800000000002" y="545.9580000000002" as="targetPoint" />
            <Array as="points">
              <mxPoint x="261" y="330" />
              <mxPoint x="261" y="546" />
            </Array>
          </mxGeometry>
        </mxCell>
        <mxCell id="kGm6ucPW3_3usi9ivNwX-33" value="media type selection" style="edgeLabel;html=1;align=center;verticalAlign=middle;resizable=0;points=[];fontSize=15;fontStyle=1" parent="kGm6ucPW3_3usi9ivNwX-32" vertex="1" connectable="0">
          <mxGeometry x="0.6973" y="1" relative="1" as="geometry">
            <mxPoint as="offset" />
          </mxGeometry>
        </mxCell>
        <mxCell id="kGm6ucPW3_3usi9ivNwX-34" style="edgeStyle=orthogonalEdgeStyle;rounded=0;orthogonalLoop=1;jettySize=auto;html=1;entryX=-0.001;entryY=0.565;entryDx=0;entryDy=0;entryPerimeter=0;strokeWidth=3;fontSize=15;fontStyle=1" parent="1" source="0CBs-_K-dKTUyLUtf2J0-20" target="kGm6ucPW3_3usi9ivNwX-23" edge="1">
          <mxGeometry relative="1" as="geometry">
            <Array as="points">
              <mxPoint x="242" y="605" />
              <mxPoint x="682" y="605" />
              <mxPoint x="682" y="570" />
            </Array>
          </mxGeometry>
        </mxCell>
        <mxCell id="kGm6ucPW3_3usi9ivNwX-35" value="media" style="edgeLabel;html=1;align=center;verticalAlign=middle;resizable=0;points=[];fontSize=15;fontStyle=1" parent="kGm6ucPW3_3usi9ivNwX-34" vertex="1" connectable="0">
          <mxGeometry x="0.3258" y="-2" relative="1" as="geometry">
            <mxPoint as="offset" />
          </mxGeometry>
        </mxCell>
        <mxCell id="kGm6ucPW3_3usi9ivNwX-36" style="edgeStyle=orthogonalEdgeStyle;rounded=0;orthogonalLoop=1;jettySize=auto;html=1;entryX=0.25;entryY=1;entryDx=0;entryDy=0;strokeWidth=3;fontSize=15;fontStyle=1" parent="1" source="kGm6ucPW3_3usi9ivNwX-28" target="0CBs-_K-dKTUyLUtf2J0-20" edge="1">
          <mxGeometry relative="1" as="geometry">
            <Array as="points">
              <mxPoint x="223" y="715" />
            </Array>
          </mxGeometry>
        </mxCell>
        <mxCell id="kGm6ucPW3_3usi9ivNwX-37" value="prediction result" style="edgeLabel;html=1;align=center;verticalAlign=middle;resizable=0;points=[];fontSize=15;fontStyle=1" parent="kGm6ucPW3_3usi9ivNwX-36" vertex="1" connectable="0">
          <mxGeometry x="-0.8314" y="1" relative="1" as="geometry">
            <mxPoint as="offset" />
          </mxGeometry>
        </mxCell>
        <mxCell id="kGm6ucPW3_3usi9ivNwX-38" style="edgeStyle=orthogonalEdgeStyle;rounded=0;orthogonalLoop=1;jettySize=auto;html=1;entryX=0;entryY=0.5;entryDx=0;entryDy=0;fillColor=#ffcd28;gradientColor=#ffa500;strokeColor=#d79b00;strokeWidth=3;fontSize=15;fontStyle=1" parent="1" source="kGm6ucPW3_3usi9ivNwX-23" target="kGm6ucPW3_3usi9ivNwX-19" edge="1">
          <mxGeometry relative="1" as="geometry">
            <Array as="points">
              <mxPoint x="1012" y="566" />
              <mxPoint x="1012" y="378" />
            </Array>
          </mxGeometry>
        </mxCell>
      </root>
    </mxGraphModel>
  </diagram>
</mxfile>
